{
  "asset": {
    "version": "2.0",
    "generator": "THREE.GLTFExporter"
  },
  "scenes": [
    {
      "nodes": [
        0
      ]
    }
  ],
  "scene": 0,
  "nodes": [
    {
      "children": [
        1,
        2,
        3
      ],
      "matrix": [
        0.01,
        0,
        0,
        0,
        0,
        0.01,
        0,
        0,
        0,
        0,
        0.01,
        0,
        0,
        0,
        0,
        1
      ]
    },
    {
      "matrix": [
        0.7071067811865475,
        -0.49999999999999994,
        -0.5,
        0,
        0.7071067811865475,
        0.4999999999999999,
        0.49999999999999994,
        0,
        -5.551115123125783e-17,
        -0.7071067811865475,
        0.7071067811865475,
        0,
        0,
        0,
        0,
        1
      ],
      "name": "Cube",
      "mesh": 0
    },
    {
      "matrix": [
        0.9956668862681731,
        1.4433511908232277e-8,
        -0.09299167483727032,
        0,
        -0.023113993182198464,
        0.9686165879482493,
        -0.2474826233711463,
        0,
        0.09007327521642645,
        0.24855966195561813,
        0.9644194624437515,
        0,
        33.33872778376061,
        255.59691650124728,
        1065.414068444113,
        1
      ],
      "camera": 0
    },
    {
      "matrix": [
        1,
        0,
        0,
        0,
        0,
        1,
        0,
        0,
        0,
        0,
        1,
        0,
        0,
        1,
        0,
        1
      ],
      "name": "Default Ambient Light"
    }
  ],
  "bufferViews": [
    {
      "buffer": 0,
      "byteOffset": 0,
      "byteLength": 11232,
      "target": 34962,
      "byteStride": 12
    },
    {
      "buffer": 0,
      "byteOffset": 11232,
      "byteLength": 11232,
      "target": 34962,
      "byteStride": 12
    },
    {
      "buffer": 0,
      "byteOffset": 22464,
      "byteLength": 7488,
      "target": 34962,
      "byteStride": 8
    },
    {
      "buffer": 0,
      "byteOffset": 29952,
      "byteLength": 7464,
      "target": 34963
    }
  ],
  "buffers": [
    {
      "byteLength": 37416,
      "uri": "data:application/octet-stream;base64,"
    }
  ],
  "accessors": [
    {
      "bufferView": 0,
      "componentType": 5126,
      "count": 936,
      "max": [
        109.32379150390625,
        109.32379150390625,
        109.32379150390625
      ],
      "min": [
        -109.32379150390625,
        -109.32379150390625,
        -109.32379150390625
      ],
      "type": "VEC3"
    },
    {
      "bufferView": 1,
      "componentType": 5126,
      "count": 936,
      "max": [
        1,
        1,
        1
      ],
      "min": [
        -1,
        -1,
        -1
      ],
      "type": "VEC3"
    },
    {
      "bufferView": 2,
      "componentType": 5126,
      "count": 936,
      "max": [
        1,
        1
      ],
      "min": [
        0,
        0
      ],
      "type": "VEC2"
    },
    {
      "bufferView": 3,
      "componentType": 5123,
      "count": 3732,
      "max": [
        935
      ],
      "min": [
        0
      ],
      "type": "SCALAR"
    }
  ],
  "meshes": [
    {
      "primitives": [
        {
          "mode": 4,
          "attributes": {
            "POSITION": 0,
            "NORMAL": 1,
            "TEXCOORD_0": 2
          },
          "extras": {
            "parameters": {
              "width": 218.6475763230701,
              "widthSegments": 1,
              "heightSegments": 1,
              "depthSegments": 1,
              "cornerRadius": 18,
              "cornerSegments": 11,
              "depth": 218.6475763230701,
              "height": 218.6475763230701,
              "type": "CubeGeometry"
            },
            "type": "CubeGeometry"
          },
          "indices": 3
        }
      ]
    }
  ],
  "cameras": [
    {
      "type": "orthographic",
      "orthographic": {
        "xmag": 10.637119113573407,
        "ymag": 5.268698060941828,
        "zfar": 100000,
        "znear": 0
      }
    }
  ]
}